<?xml version="1.0" encoding="utf-8"?>
<!-- Generator: Adobe Illustrator 22.1.0, SVG Export Plug-In . SVG Version: 6.00 Build 0)  -->
<svg version="1.1" id="Layer_1" xmlns="http://www.w3.org/2000/svg" xmlns:xlink="http://www.w3.org/1999/xlink" x="0px" y="0px"
	 viewBox="0 0 1920 1080" style="enable-background:new 0 0 1920 1080;" xml:space="preserve">
<style type="text/css">
	.st0{fill:#009AD0;}
	.st1{fill:#00263E;}
</style>
<g>
	<g>
		<path class="st0" d="M600,373.5H434.5c-17.7,0-32,14.3-32,32v0c0,17.7,14.3,32,32,32h166c16.6,0,30,13.4,30,30v0
			c0,9.5-4.4,18-11.3,23.5c13.2,6.1,22.6,21.1,22.6,38.5v0c0,9-2.5,17.4-6.7,24.2c34.3-13.9,58.5-47.5,58.5-86.7v0
			C693.5,415.4,651.6,373.5,600,373.5z"/>
		<path class="st0" d="M602.6,497.4c-0.7,0-1.4,0.1-2.1,0.1H435c-17.4,0-31.5,14.1-31.5,31.5v0c0,17.4,14.1,31.5,31.5,31.5h50v113
			c0,17.4,14.1,31.5,31.5,31.5h0c17.4,0,31.5-14.1,31.5-31.5v-113h52c1.3,0,2.6,0,3.8-0.1C619.2,558.2,631,545,631,529v0
			C631,512.6,618.5,499.1,602.6,497.4z"/>
	</g>
	<g>
		<path class="st1" d="M829,455c-21.9,0-41.6,10.2-55,26.2V469c0-5.8-4.7-10.5-10.5-10.5S753,463.2,753,469v33.8v34.8v109.2
			c0,6.2,5,11.2,11.2,11.2s11.2-5,11.2-11.2v-63.2c13.3,15,32.4,24.5,53.5,24.5c40.3,0,73-34.3,73-76.5C902,489.3,869.3,455,829,455
			z M877,537.3c0,27.4-22.3,49.7-49.7,49.7h0c-28.3,0-51.3-23-51.3-51.3v-7.4c0-28.3,23-51.3,51.3-51.3h0
			c27.4,0,49.7,22.3,49.7,49.7V537.3z"/>
		<path class="st1" d="M996.5,586h-15.3c-13.4,0-24.2-10.8-24.2-24.2V480h35.5c5.8,0,10.5-4.7,10.5-10.5c0-5.8-4.7-10.5-10.5-10.5
			H957v-28.5c0-6.4-5.1-11.5-11.5-11.5s-11.5,5.1-11.5,11.5V459h-14.5c-5.8,0-10.5,4.7-10.5,10.5c0,5.8,4.7,10.5,10.5,10.5H934v85.3
			c0,23,18.6,41.7,41.7,41.7h20.8c5.8,0,10.5-4.7,10.5-10.5C1007,590.7,1002.3,586,996.5,586z"/>
		<path class="st1" d="M1061.8,601.4l-46.4-134.7c-0.8-2.3,0.2-4.7,2.4-5.8l0,0c2.5-1.3,5.6,0,6.6,2.6l46.7,125.9
			c0.1,0.4,0.7,0.4,0.9,0l51.9-128.2c1.9-4.6,8.4-4.6,10.2,0l51.3,128.9c0,0.1,0.2,0.1,0.3,0l46.8-126.7c0.9-2.4,3.5-3.6,5.9-2.8
			l0,0c2.4,0.8,3.7,3.5,2.9,5.9l-47.1,136.7c-2,5.7-9.9,5.9-12.2,0.4L1128.7,476c-0.1-0.2-0.3-0.2-0.4,0l-47.8,115.5l-4.7,11.6
			c-2,4.8-8.3,5.9-11.8,2v0C1063,604.1,1062.3,602.8,1061.8,601.4z"/>
		<path class="st1" d="M1312.9,458l-4.5-0.1c-14.8-0.4-29.2,5.8-38.9,15.1l-9.1,8.8c-1.9,1.8-1.9,4.7-0.1,6.6c1.9,1.9,5,1.8,6.8-0.3
			c6.3-7.6,21.8-23.1,41.9-22c28,1.6,43.5,20,43.5,44v3.5v3.2v15.8h-58c-19.8,0-44.5,11-44.5,35.8v2.7c0,19.9,22.1,36,42,36h11.8
			c16.6,0,40.9-12.6,48.7-28.3V600c0,2.5,2,4.5,4.5,4.5s4.5-2,4.5-4.5v-83.3v-3.2v-4.9C1361.5,481.8,1340.5,458.5,1312.9,458z
			 M1352,553.5c0,26-26.5,46-51.2,46h-4.6c-17.9,0-37.8-13.9-37.8-29.8v-1.1c0-19.8,20.2-27.6,38-27.6h55.6V553.5z"/>
		<path class="st1" d="M1513.8,461c-2.4-1-5.3,0.1-6.3,2.6l-54,127.2l-56.9-127.8c-1.1-2.4-3.9-3.5-6.4-2.4
			c-2.4,1.1-3.5,3.9-2.4,6.4l60.5,136l-0.3,0.7l-10.6,25.8c-5.2,12.7-13.1,21-25.9,23c-2.9,0.5-7.1,1-10,0.7
			c-2.4-0.2-4.9-0.8-7.3-1.2c-3-0.6-7.7-1.4-8.8,2.4c-0.7,2.3,0.8,4.2,2.9,4.9c4.3,1.5,9.2,1.9,13.8,2.1c1.1,0,2.3,0.1,3.4,0.1
			c15.7,0.6,30.3-8.3,36.9-22.6l14.5-31.5l59.5-140.1C1517.4,464.9,1516.2,462.1,1513.8,461z"/>
	</g>
</g>
</svg>
